<svg xmlns="http://www.w3.org/2000/svg" id="Full_Logo" data-name="Full Logo" viewBox="118.51 218.68 233.92 57.3">
  <g>
    <path d="M170.426,260.025v15.786h-15.786v-9.617c0-2.543-1.14-4.966-3.136-6.542-.029-.023-.058-.045-.086-.068-1.442-1.116-3.23-1.692-5.054-1.692h-9.706v-9.629c0-2.543-1.14-4.966-3.136-6.542-.029-.023-.058-.045-.087-.068-1.442-1.116-3.23-1.692-5.054-1.692h-9.871s0-15.792,0-15.792h15.792v9.655c0,1.824.576,3.611,1.692,5.054,1.051,1.358,2.631,2.765,4.845,3.222h11.609v9.649c0,1.824.576,3.611,1.692,5.054.022.029.045.058.068.087,1.576,1.996,3.999,3.136,6.542,3.136h9.674Z"/>
    <path d="M154.637,224.172h15.791v15.791h-11.348c-2.452,0-4.443-1.991-4.443-4.443v-11.348h0Z"/>
    <path d="M118.513,260.023h11.348c2.452,0,4.443,1.991,4.443,4.443v11.348h-15.791v-15.791h0Z"/>
  </g>
  <g>
    <path d="M199.788,274.104c-2.514-1.25-4.401-2.891-5.664-4.922-1.264-2.031-1.895-4.219-1.895-6.562l6.484.039c.025,1.459.442,2.787,1.25,3.984.807,1.198,1.979,2.143,3.516,2.832,1.536.69,3.359,1.035,5.469,1.035,2.969,0,5.234-.579,6.797-1.738,1.562-1.158,2.344-2.767,2.344-4.824,0-1.432-.385-2.571-1.152-3.418-.769-.846-1.855-1.497-3.262-1.953-1.406-.455-3.281-.879-5.625-1.27-4.297-.625-7.695-1.816-10.195-3.574s-3.75-4.485-3.75-8.184c0-2.213.54-4.205,1.621-5.977,1.08-1.771,2.688-3.164,4.824-4.18,2.135-1.016,4.739-1.523,7.812-1.523,3.021,0,5.689.508,8.008,1.523,2.317,1.016,4.114,2.436,5.391,4.258,1.275,1.823,1.914,3.881,1.914,6.172h-6.602c-.104-1.927-.925-3.463-2.461-4.609-1.537-1.146-3.62-1.719-6.25-1.719-2.475,0-4.362.561-5.664,1.68-1.303,1.12-1.953,2.526-1.953,4.219,0,1.276.286,2.305.859,3.086.572.781,1.536,1.433,2.891,1.953,1.354.521,3.294.99,5.82,1.406,2.942.469,5.442,1.068,7.5,1.797,2.057.729,3.756,1.895,5.098,3.496,1.341,1.602,2.012,3.757,2.012,6.465,0,2.656-.671,4.916-2.012,6.777-1.342,1.862-3.217,3.262-5.625,4.199-2.409.938-5.215,1.406-8.418,1.406-3.542,0-6.569-.625-9.082-1.875Z"/>
    <path d="M265.949,256.682h-33.047c.26,2.604,1.028,4.89,2.305,6.855,1.275,1.967,2.884,3.483,4.824,4.551,1.939,1.068,4.004,1.602,6.191,1.602,2.682,0,4.974-.579,6.875-1.738,1.9-1.158,3.294-2.857,4.18-5.098h7.539c-.756,2.448-2.019,4.668-3.789,6.66-1.771,1.992-3.92,3.562-6.445,4.707-2.526,1.146-5.261,1.719-8.203,1.719-3.776,0-7.214-.938-10.312-2.812-3.1-1.875-5.534-4.414-7.305-7.617-1.771-3.203-2.656-6.731-2.656-10.586,0-3.828.892-7.356,2.676-10.586,1.783-3.229,4.219-5.781,7.305-7.656s6.517-2.812,10.293-2.812c3.724,0,7.09.918,10.098,2.754s5.357,4.291,7.051,7.363c1.692,3.073,2.539,6.394,2.539,9.961,0,.365-.039,1.276-.117,2.734ZM259.191,250.744c-.131-1.875-.795-3.619-1.992-5.234-1.198-1.614-2.768-2.903-4.707-3.867-1.94-.963-4.018-1.445-6.23-1.445-2.031,0-3.945.41-5.742,1.23s-3.34,2.025-4.629,3.613c-1.289,1.589-2.182,3.49-2.676,5.703h25.977Z"/>
    <path d="M270.371,225.998c-.834-.82-1.25-1.842-1.25-3.066,0-1.197.416-2.207,1.25-3.027.833-.82,1.939-1.23,3.32-1.23s2.493.41,3.34,1.23c.846.82,1.27,1.83,1.27,3.027,0,1.225-.424,2.246-1.27,3.066-.847.82-1.973,1.23-3.379,1.23-1.354,0-2.448-.41-3.281-1.23ZM270.332,235.002h6.719v39.844h-6.719v-39.844Z"/>
    <path d="M281.591,270.51l23.086-29.766h-21.953v-5.742h31.055v4.414l-22.969,29.688h23.906v5.742h-33.125v-4.336Z"/>
    <path d="M320.896,224.807c-.521,0-.983-.195-1.387-.586-.404-.391-.605-.885-.605-1.484,0-.547.201-1.021.605-1.426s.865-.605,1.387-.605c.547,0,1.028.202,1.445.605.416.404.625.879.625,1.426,0,.6-.209,1.094-.625,1.484-.417.391-.898.586-1.445.586ZM320.193,235.627h1.484v39.219h-1.484v-39.219Z"/>
    <path d="M346.686,274.846c-1.537,0-2.982-.208-4.336-.625-1.354-.416-2.533-1.146-3.535-2.188-1.003-1.041-1.797-2.447-2.383-4.219-.586-1.771-.879-3.997-.879-6.68v-23.945h-9.922v-1.562h9.922v-12.031h1.484v12.031h15.391v1.562h-15.391v23.959c0,2.705.293,4.857.879,6.457.586,1.601,1.341,2.823,2.266,3.668.924.846,1.966,1.392,3.125,1.639,1.158.248,2.298.371,3.418.371h5.703v1.562h-5.742Z"/>
  </g>
</svg>