<svg xmlns="http://www.w3.org/2000/svg" id="Symbol" viewBox="155.08 155.58 189.84 188.84">
  <path d="M344.911,286.689v57.722h-57.722v-35.164c0-9.298-4.169-18.16-11.467-23.921-.105-.083-.211-.166-.316-.247-5.274-4.081-11.81-6.188-18.479-6.188h-35.491v-35.21c0-9.298-4.168-18.16-11.466-23.921-.106-.083-.211-.166-.316-.247-5.274-4.081-11.81-6.188-18.479-6.188h-36.095s0-57.745,0-57.745h57.745v35.305c0,6.669,2.107,13.204,6.188,18.479,3.844,4.967,9.62,10.109,17.718,11.783h42.45v35.282c0,6.669,2.107,13.204,6.188,18.479.082.105.164.211.247.316,5.761,7.298,14.623,11.467,23.921,11.467h35.373Z"/>
  <path d="M287.178,155.589h57.741v57.741h-41.494c-8.967,0-16.247-7.28-16.247-16.247v-41.494h0Z"/>
  <path d="M155.087,286.681h41.494c8.967,0,16.247,7.28,16.247,16.247v41.494h-57.741v-57.741h0Z"/>
</svg>